<svg xmlns="http://www.w3.org/2000/svg" xmlns:svg="http://www.w3.org/2000/svg" id="svg2" width="744.094" height="1052.362" version="1.1"><metadata id="metadata7"/><g id="layer1"><path id="path2987" d="m 584.0125,579.50507 a 212.58394,212.58394 0 1 1 -425.16788,0 212.58394,212.58394 0 1 1 425.16788,0 z" transform="matrix(0.67143477,0,0,0.67143477,119.03851,174.90671)" style="fill:#000;fill-rule:evenodd;stroke:#000;stroke-width:1px;stroke-linecap:butt;stroke-linejoin:miter;stroke-opacity:1"/><path id="path2989" d="m 551.42856,273.79074 a 150,150 0 1 1 -300,0 150,150 0 1 1 300,0 z" transform="matrix(0.86501586,0,0,0.85407393,21.11727,331.21667)" style="fill:#fff"/><path id="path3033" style="fill:#000"/><path id="path3035" style="fill:#000"/><g id="g3045" transform="translate(-2,0)"><text style="font-size:40px;font-style:normal;font-weight:400;line-height:125%;letter-spacing:0;word-spacing:0;fill:#000;fill-opacity:1;stroke:none;font-family:Sans" id="text2991" x="-382.208" y="617.177" transform="scale(-1,1)" xml:space="preserve"><tspan id="tspan2993" x="-382.208" y="617.177" style="font-size:144px">B</tspan></text></g><g id="g3013" transform="matrix(-1,0,0,1,737.68951,0)"><text id="text3015" x="-382.208" y="617.177" transform="scale(-1,1)" xml:space="preserve" style="font-size:40px;font-style:normal;font-weight:400;line-height:125%;letter-spacing:0;word-spacing:0;fill:#000;fill-opacity:1;stroke:none;font-family:Sans"><tspan style="font-size:144px" id="tspan3017" x="-382.208" y="617.177">B</tspan></text></g><rect id="rect3025" width="14.95" height="30.339" x="429.095" y="586.863" style="fill:#000;fill-opacity:1;stroke:none"/><rect id="rect3023" width="45.288" height="47.708" x="383.812" y="586.758" style="fill:#fff;fill-opacity:1;stroke:none"/></g></svg>